 <svg  version="1.0" xmlns="http://www.w3.org/2000/svg"  width="450.000000pt" height="450.000000pt" viewBox="0 0 450.000000 450.000000"  preserveAspectRatio="xMidYMid meet">  <g transform="translate(0.000000,450.000000) scale(0.100000,-0.100000)" fill="#000000" stroke="none"> <path d="M2155 3875 c-5 -2 -44 -10 -85 -20 -41 -9 -110 -28 -152 -43 l-78 -27 0 -122 c0 -111 -2 -122 -19 -128 -11 -3 -60 -30 -109 -60 l-90 -54 -101 61 -100 61 -50 -42 c-72 -60 -211 -210 -211 -227 0 -8 25 -55 55 -105 30 -50 55 -94 55 -99 0 -5 -23 -45 -50 -90 -28 -45 -55 -92 -60 -105 -9 -24 -9 -24 -128 -18 l-119 6 -23 -59 c-18 -48 -50 -173 -75 -290 -4 -18 11 -30 100 -79 l105 -57 0 -128 0 -129 -87 -46 c-133 -70 -124 -56 -102 -160 17 -84 45 -181 71 -249 l12 -29 118 6 118 7 36 -73 c20 -39 47 -86 60 -103 13 -17 24 -36 24 -42 0 -6 -27 -55 -59 -109 l-59 -97 40 -48 c44 -53 217 -218 228 -218 4 0 50 27 103 60 52 33 97 60 100 60 2 0 34 -19 70 -43 36 -24 84 -51 106 -62 l41 -18 0 -122 0 -122 118 -36 c131 -40 245 -63 250 -50 2 4 27 51 55 103 l53 95 87 -4 c48 -2 87 1 87 6 0 5 -33 15 -72 22 -259 47 -555 208 -737 400 -169 179 -270 345 -340 561 -42 132 -60 230 -67 367 -37 705 450 1334 1141 1473 61 13 112 25 115 27 3 3 -44 4 -104 2 l-108 -4 -56 103 c-56 101 -66 110 -107 97z"/> <path d="M2954 3408 c-91 -95 -124 -175 -124 -298 0 -139 42 -230 154 -338 110 -104 100 -39 106 -737 l5 -610 24 -38 c27 -44 85 -77 136 -77 50 0 110 33 140 77 l25 38 0 586 c0 693 -7 642 112 762 167 168 201 344 104 535 -34 67 -117 155 -143 150 -16 -3 -18 -18 -23 -158 l-5 -154 -38 -26 c-20 -14 -66 -41 -102 -60 l-66 -35 -85 45 c-136 71 -133 66 -136 238 -4 174 -8 179 -84 100z m346 -1888 c41 -41 13 -100 -46 -100 -23 0 -37 6 -44 19 -36 69 36 135 90 81z"/> <path d="M2415 3227 c-78 -29 -143 -74 -201 -140 -41 -47 -176 -266 -266 -430 -20 -37 -48 -69 -78 -91 -50 -36 -108 -102 -133 -151 -31 -63 -39 -136 -35 -350 3 -206 4 -211 31 -270 15 -33 45 -77 65 -99 84 -87 164 -116 323 -116 l108 0 63 78 c172 211 154 203 445 200 l228 -3 0 -35 0 -35 -232 -5 c-266 -6 -234 6 -344 -127 l-60 -73 323 0 c239 0 327 3 336 12 19 19 17 1021 -1 1037 -10 7 -153 12 -469 13 l-456 3 103 175 c114 194 169 259 255 299 48 22 72 26 183 29 140 5 133 1 140 72 l2 25 -135 2 c-119 2 -142 0 -195 -20z m-229 -777 c80 -47 137 -73 173 -80 29 -5 179 -10 333 -10 l279 0 -3 -32 -3 -33 -327 0 -326 0 -89 46 c-133 69 -203 117 -203 137 0 20 18 42 36 42 6 0 65 -31 130 -70z m-156 -122 c67 -32 102 -58 163 -118 67 -68 77 -82 77 -114 0 -49 -34 -66 -137 -66 -135 0 -286 65 -334 144 -40 65 -15 151 54 185 50 25 66 22 177 -31z"/> <path d="M1544 2815 c-75 -34 -97 -114 -46 -165 35 -34 87 -50 167 -50 75 0 121 13 153 42 54 51 49 115 -15 158 -32 22 -49 25 -132 27 -66 2 -106 -2 -127 -12z"/> <path d="M1760 1523 c0 -101 13 -158 43 -190 19 -22 28 -23 158 -23 76 0 145 3 154 6 26 10 55 79 55 132 l0 49 -97 6 c-110 6 -190 30 -259 77 -25 16 -47 30 -50 30 -2 0 -4 -39 -4 -87z"/> </g> </svg> 